<svg xmlns="http://www.w3.org/2000/svg" xmlns:xlink="http://www.w3.org/1999/xlink" version="1.1" x="0px" y="0px" viewBox="0 0 100 125" enable-background="new 0 0 100 100" xml:space="preserve"><path d="M90.218,47.933V35.226h-0.002C90.18,25.441,82.238,17.52,72.444,17.52c-9.81,0-17.763,7.947-17.773,17.754H54.67v24.064  v0.05h10.27v11.454h-7.455c-3.054,0-5.529,2.476-5.529,5.529c0,1.31,1.061,2.37,2.37,2.37c1.309,0,2.369-1.061,2.369-2.37  c0,1.31,1.062,2.37,2.37,2.37s2.37-1.061,2.37-2.37c0,1.31,1.061,2.37,2.369,2.37c1.31,0,2.37-1.061,2.37-2.37  c0-0.435,0.354-0.79,0.79-0.79s0.79,0.355,0.79,0.79v2.37h-3.95h-4.739h-4.739h-4.219L39.638,57.808H6.582l12.841,25.668v0.005  h61.316l0,0c5.223-0.014,9.454-4.238,9.478-9.459h0.001V55.832c2.182,0,3.95-1.768,3.95-3.949  C94.168,49.702,92.399,47.933,90.218,47.933z M56.25,35.294c0-8.929,7.265-16.194,16.194-16.194c8.927,0,16.189,7.26,16.193,16.187  v2.34h0.001v10.306h-3.16c-1.742,0-3.16-1.417-3.16-3.16v-10.22v0c0-0.436-0.354-0.79-0.79-0.79c-0.436,0-0.789,0.354-0.789,0.79v0  v3.9c0,1.742-1.418,3.16-3.16,3.16H56.25V35.294z M57.227,74.016c-1.187,0.129-2.112,1.135-2.112,2.355  c0,0.436-0.354,0.79-0.789,0.79c-0.436,0-0.79-0.354-0.79-0.79c0-2.178,1.771-3.949,3.949-3.949h0.873  C57.891,72.878,57.509,73.419,57.227,74.016z M61.967,74.016c-1.188,0.129-2.112,1.135-2.112,2.355c0,0.436-0.354,0.79-0.79,0.79  s-0.79-0.354-0.79-0.79c0-2.178,1.772-3.949,3.95-3.949h0.873C62.631,72.878,62.249,73.419,61.967,74.016z M20.402,81.901  L9.139,59.388h25.581l11.264,22.514H20.402z M47.75,81.901L36.486,59.388h2.175l10.479,20.934h18.889  c0.209,0.589,0.529,1.124,0.938,1.58H47.75z M73.283,81.901h-0.789c-1.743,0-3.16-1.418-3.16-3.16v-2.37  c0-1.309-1.062-2.37-2.37-2.37s-2.37,1.062-2.37,2.37c0,0.436-0.354,0.79-0.79,0.79c-0.435,0-0.789-0.354-0.789-0.79  c0-2.178,1.771-3.949,3.949-3.949s3.95,1.771,3.95,3.949c0,1.31,1.062,2.37,2.369,2.37V81.901z M88.639,74.001L88.639,74.001  c-0.015,4.35-3.551,7.886-7.899,7.899v0.001h-5.876v-3.16h5.876c2.617,0,4.739-2.122,4.739-4.74v-3.555  c0-0.436-0.354-0.79-0.79-0.79c-0.436,0-0.79,0.354-0.79,0.79v3.555c0,1.743-1.417,3.16-3.159,3.16h-7.456  c-0.435,0-0.789-0.354-0.789-0.79c0-3.053-2.476-5.529-5.53-5.529c-0.017,0-0.032,0.002-0.049,0.002v-0.002H66.52v-4.345h22.119  V74.001z M90.218,54.253h-1.579v10.664H66.52v-7.109H56.25V43.193h21.329c1.216,0,2.32-0.461,3.16-1.214v2.794  c0,2.617,2.122,4.74,4.739,4.74h3.16l0,0h1.579l0,0c1.308,0,2.37,1.063,2.37,2.37S91.525,54.253,90.218,54.253z"/><circle cx="61.385" cy="52.277" r="0.79"/><circle cx="65.729" cy="52.277" r="0.79"/><text x="0" y="115" fill="#000000" font-size="5px" font-weight="bold" font-family="'Helvetica Neue', Helvetica, Arial-Unicode, Arial, Sans-serif">Created by Bram van Rijen</text><text x="0" y="120" fill="#000000" font-size="5px" font-weight="bold" font-family="'Helvetica Neue', Helvetica, Arial-Unicode, Arial, Sans-serif">from the Noun Project</text></svg>